<svg id="Layer_1" xmlns="http://www.w3.org/2000/svg" viewBox="0 0 170 100"><style>.st0{fill:#E4002B;}</style><path id="text1326_21_" d="M54.4 38.8c4.2-4.1 8.3-7.5 12.2-10.4 3.9-2.9 7.2-4.8 9.9-5.8s5.6-1.4 8.8-1.4v8.5c-2.4 0-4.6.4-6.8 1.3-2.2.8-4.8 2.2-7.9 4.3-3.1 2-6.7 4.8-10.9 8.4m-.1.1c5.7 5.6 10.3 9.5 14 11.5 3.7 2 7.4 3 11 3 4.6 0 8.1-1.3 10.7-4 3.2 5 1.7 9.8 1.7 9.8-3.3 1.9-7.2 2.8-11.5 2.8-5.6 0-10.6-1.2-14.8-3.6-4.2-2.4-9.6-7-16.3-13.7-7 6.9-12.5 11.5-16.6 13.8-4.1 2.3-8.9 3.5-14.4 3.5-7 0-12.4-2.2-16.3-6.5-3.9-4.4-5.8-9.8-5.8-16.5 0-6.2 2-11.5 6.1-16 4.1-4.4 9.5-6.7 16.1-6.7 3.2 0 6.2.5 8.8 1.4 2.7 1 5.9 2.9 9.8 5.8 3.9 2.8 8 6.3 12.2 10.4m-5.1 5c-3.9-3.3-7.3-5.9-10.4-8-3.1-2.1-5.7-3.7-8-4.6-2.3-.9-4.8-1.4-7.6-1.4-3.9 0-7.2 1.4-9.7 4.1-2.6 2.7-3.9 6.2-3.9 10.4 0 2.9.7 5.4 2 7.5 1.3 2 3 3.6 4.9 4.7 2 1.1 4.4 1.7 7.4 1.7 3.9 0 7.6-1 11.2-3.1 3.8-1.9 8.4-5.7 14.1-11.3"/><ellipse class="st0" cx="144.4" cy="8.6" rx="6.3" ry="6.3"/><path d="M84.8 39.5H59.5l.7 8.3h32.2c-2.2-3.1-4.7-6-7.6-8.3z"/><path d="M85.3 21.3c-3.2 0-6.2.5-8.8 1.4-1.2.4-2.5 1.1-3.9 1.9l17.2 1.3-4.5-4.6zm10.5 32.3c-1 1.2-2.2 2.2-3.5 3-2 1.1-4.4 1.7-7.4 1.7-3.9 0-7.6-1-11.2-3.1-3.6-2-8.3-5.8-14-11.4 3.9-3.3 7.3-5.9 10.4-8 .7-.5 1.3-.9 1.9-1.3h-1l-2-7.6c-.7.5-1.5 1.1-2.3 1.6-3.9 2.8-8 6.3-12.2 10.4-4.2-4.1-8.3-7.5-12.2-10.4-3.9-2.9-7.2-4.8-9.9-5.8s-5.6-1.4-8.8-1.4v8.5c2.4 0 4.6.4 6.8 1.3 2.2.8 4.8 2.2 7.9 4.3 3.1 2 6.7 4.8 10.9 8.4-5.7 5.6-10.3 9.5-14 11.5-3.7 2-7.4 3-11 3-4.6 0-8.1-1.3-10.7-4-3.2 5-1.7 9.8-1.7 9.8 3.3 1.9 7.2 2.8 11.5 2.8 5.6 0 10.6-1.2 14.8-3.6 4.2-2.4 9.6-7 16.3-13.7 7 6.9 12.5 11.5 16.6 13.8 4.1 2.3 8.9 3.5 14.4 3.5 5.8 0 10.6-1.5 14.3-4.6-1-2.8-2.3-5.7-3.9-8.7z"/><path d="M110.1 55c1.3 3.4 2.3 6.5 2.9 8.8.3 1.1.5 2 .7 2.6 0 .2.1.4.1.5h8.5c.5-2.1 2.9-12 7-21.1 2.1-4.5 4.6-8.8 7.2-11.7 1.3-1.5 2.7-2.6 4-3.3 1.3-.7 2.5-1 3.7-1 1.6 0 2.9.4 4.2 1.2 2.2 1.4 4.4 4.2 6.1 8 2.6 5.7 4.2 13.2 5 19.1.4 3 .6 5.6.8 7.5 0 .5.1.9.1 1.2h8.5c-.2-3.3-.8-12-3-20.9-1.4-5.7-3.5-11.4-6.8-16.2-1.7-2.4-3.7-4.5-6.2-6-2.5-1.6-5.5-2.5-8.7-2.5-3 0-5.9.9-8.3 2.3-4.3 2.5-7.5 6.5-10.3 10.8-3.4 5.4-5.9 11.6-7.8 17-.9-2.4-2-4.9-3.3-7.4-2.7-5.4-6.3-10.9-11.1-15.3-4.7-4.3-10.9-7.5-18.3-7.5-2.4 0-4.3 1.9-4.3 4.3s1.9 4.3 4.3 4.3c4.9 0 8.9 2 12.5 5.3 5.7 5 9.9 13.1 12.5 20z"/></svg>