<?xml version="1.0" encoding="utf-8"?>
<!-- Generator: Adobe Illustrator 20.0.0, SVG Export Plug-In . SVG Version: 6.00 Build 0)  -->
<!DOCTYPE svg PUBLIC "-//W3C//DTD SVG 1.1//EN" "http://www.w3.org/Graphics/SVG/1.1/DTD/svg11.dtd">
<svg version="1.1" id="Layer_1" xmlns="http://www.w3.org/2000/svg" xmlns:xlink="http://www.w3.org/1999/xlink" x="0px" y="0px"
	 viewBox="0 0 170 80" style="enable-background:new 0 0 170 80;" xml:space="preserve">
<style type="text/css">
	.st0{fill:#E4002B;}
</style>
<g>
	<path id="text1326_21_" d="M54.4,38.8c4.2-4.1,8.3-7.5,12.2-10.4c3.9-2.9,7.2-4.8,9.9-5.8c2.7-1,5.6-1.4,8.8-1.4v8.5
		c-2.4,0-4.6,0.4-6.8,1.3c-2.2,0.8-4.8,2.2-7.9,4.3c-3.1,2-6.7,4.8-10.9,8.4 M59.6,43.8c5.7,5.6,10.3,9.5,14,11.5c3.7,2,7.4,3,11,3
		c4.6,0,8.1-1.3,10.7-4c3.2,5,1.7,9.8,1.7,9.8c-3.3,1.9-7.2,2.8-11.5,2.8c-5.6,0-10.6-1.2-14.8-3.6c-4.2-2.4-9.6-7-16.3-13.7
		c-7,6.9-12.5,11.5-16.6,13.8c-4.1,2.3-8.9,3.5-14.4,3.5c-7,0-12.4-2.2-16.3-6.5C3.2,56,1.3,50.6,1.3,43.9c0-6.2,2-11.5,6.1-16
		c4.1-4.4,9.5-6.7,16.1-6.7c3.2,0,6.2,0.5,8.8,1.4c2.7,1,5.9,2.9,9.8,5.8c3.9,2.8,8,6.3,12.2,10.4 M49.2,43.8
		c-3.9-3.3-7.3-5.9-10.4-8c-3.1-2.1-5.7-3.7-8-4.6c-2.3-0.9-4.8-1.4-7.6-1.4c-3.9,0-7.2,1.4-9.7,4.1c-2.6,2.7-3.9,6.2-3.9,10.4
		c0,2.9,0.7,5.4,2,7.5c1.3,2,3,3.6,4.9,4.7c2,1.1,4.4,1.7,7.4,1.7c3.9,0,7.6-1,11.2-3.1C38.9,53.2,43.5,49.4,49.2,43.8"/>
	<ellipse class="st0" cx="144.4" cy="8.6" rx="6.3" ry="6.3"/>
	<path d="M94.5,51.7"/>
	<path d="M84.8,39.5H59.5l0.7,8.3h32.2C90.2,44.7,87.7,41.8,84.8,39.5z"/>
	<path d="M85.3,21.3c-3.2,0-6.2,0.5-8.8,1.4c-1.2,0.4-2.5,1.1-3.9,1.9l17.2,1.3L85.3,21.3z M95.8,53.6c-1,1.2-2.2,2.2-3.5,3
		c-2,1.1-4.4,1.7-7.4,1.7c-3.9,0-7.6-1-11.2-3.1c-3.6-2-8.3-5.8-14-11.4c3.9-3.3,7.3-5.9,10.4-8c0.7-0.5,1.3-0.9,1.9-1.3
		c-0.3,0-0.7,0-1,0l-2-7.6c-0.7,0.5-1.5,1.1-2.3,1.6c-3.9,2.8-8,6.3-12.2,10.4c-4.2-4.1-8.3-7.5-12.2-10.4c-3.9-2.9-7.2-4.8-9.9-5.8
		c-2.7-1-5.6-1.4-8.8-1.4v8.5c2.4,0,4.6,0.4,6.8,1.3c2.2,0.8,4.8,2.2,7.9,4.3c3.1,2,6.7,4.8,10.9,8.4c-5.7,5.6-10.3,9.5-14,11.5
		c-3.7,2-7.4,3-11,3c-4.6,0-8.1-1.3-10.7-4c-3.2,5-1.7,9.8-1.7,9.8c3.3,1.9,7.2,2.8,11.5,2.8c5.6,0,10.6-1.2,14.8-3.6
		c4.2-2.4,9.6-7,16.3-13.7c7,6.9,12.5,11.5,16.6,13.8c4.1,2.3,8.9,3.5,14.4,3.5c5.8,0,10.6-1.5,14.3-4.6
		C98.7,59.5,97.4,56.6,95.8,53.6z"/>
	<path d="M110.1,55c1.3,3.4,2.3,6.5,2.9,8.8c0.3,1.1,0.5,2,0.7,2.6c0,0.2,0.1,0.4,0.1,0.5h8.5c0.5-2.1,2.9-12,7-21.1
		c2.1-4.5,4.6-8.8,7.2-11.7c1.3-1.5,2.7-2.6,4-3.3c1.3-0.7,2.5-1,3.7-1c1.6,0,2.9,0.4,4.2,1.2c2.2,1.4,4.4,4.2,6.1,8
		c2.6,5.7,4.2,13.2,5,19.1c0.4,3,0.6,5.6,0.8,7.5c0,0.5,0.1,0.9,0.1,1.2h8.5c-0.2-3.3-0.8-12-3-20.9c-1.4-5.7-3.5-11.4-6.8-16.2
		c-1.7-2.4-3.7-4.5-6.2-6c-2.5-1.6-5.5-2.5-8.7-2.5c-3,0-5.9,0.9-8.3,2.3c-4.3,2.5-7.5,6.5-10.3,10.8c-3.4,5.4-5.9,11.6-7.8,17
		c-0.9-2.4-2-4.9-3.3-7.4c-2.7-5.4-6.3-10.9-11.1-15.3c-4.7-4.3-10.9-7.5-18.3-7.5c-2.4,0-4.3,1.9-4.3,4.3c0,2.4,1.9,4.3,4.3,4.3v0
		c4.9,0,8.9,2,12.5,5.3C103.3,40,107.5,48.1,110.1,55z"/>
</g>
</svg>
