<svg id="Layer_1" xmlns="http://www.w3.org/2000/svg" viewBox="0 0 170 100" width="170" height="100" preserveAspectRatio="xMidYMid meet"><style>.st0{fill:#E4002B;}</style><path d="M14.4 92.7H9.5l-.9 3H5.8l4.7-13.8h2.8L18 95.7h-2.8l-.8-3zm-4.2-2.1h3.5L11.9 85l-1.7 5.6zM29.6 89.6h-5.7v3.9h6.7v2.1h-9.4V81.9h9.4V84H24v3.5h5.7v2.1zM38.6 92l.2.8.2-.8 3-10.1h2.9l-4.7 13.8h-2.8l-4.7-13.8h2.9l3 10.1zM50.9 95.7h-2.8V81.9h2.8v13.8zM63.6 96.9h-1.3V80.5h1.3v16.4zM75.3 95.7V81.9h4.2c1.8 0 3.3.5 4.4 1.6s1.6 2.5 1.6 4.3v1.9c0 1.8-.5 3.2-1.6 4.3-1.1 1.1-2.6 1.6-4.5 1.6h-4.1zM77 83.3v10.9h2.3c1.5 0 2.6-.4 3.3-1.2.7-.8 1.1-1.9 1.1-3.3v-1.9c0-1.4-.4-2.5-1.1-3.3-.7-.8-1.8-1.2-3.1-1.2H77zM100.6 90c0 1.7-.5 3.1-1.5 4.2s-2.4 1.7-4.1 1.7c-1.6 0-2.9-.6-3.9-1.7s-1.5-2.5-1.5-4.2v-2.4c0-1.7.5-3.1 1.5-4.2s2.3-1.7 3.9-1.7c1.7 0 3 .6 4.1 1.7 1 1.1 1.5 2.5 1.5 4.2V90zm-1.8-2.4c0-1.3-.3-2.3-1-3.1-.7-.8-1.6-1.2-2.8-1.2-1.1 0-2 .4-2.7 1.2-.7.8-1 1.9-1 3.1V90c0 1.3.3 2.3 1 3.2.7.8 1.5 1.2 2.7 1.2 1.2 0 2.1-.4 2.8-1.2.7-.8 1-1.9 1-3.2v-2.4zM113.9 81.9l4.5 11.4 4.5-11.4h2.3v13.8h-1.7v-5.5l.2-5.8-4.7 11.3h-1.2l-4.6-11.3.2 5.8v5.5h-1.7V81.9h2.2zM140.8 90c0 1.7-.5 3.1-1.5 4.2s-2.4 1.7-4.1 1.7c-1.6 0-2.9-.6-3.9-1.7s-1.5-2.5-1.5-4.2v-2.4c0-1.7.5-3.1 1.5-4.2s2.3-1.7 3.9-1.7c1.7 0 3 .6 4.1 1.7 1 1.1 1.5 2.5 1.5 4.2V90zm-1.7-2.4c0-1.3-.3-2.3-1-3.1-.7-.8-1.6-1.2-2.8-1.2-1.1 0-2 .4-2.7 1.2-.7.8-1 1.9-1 3.1V90c0 1.3.3 2.3 1 3.2.7.8 1.5 1.2 2.7 1.2 1.2 0 2.1-.4 2.8-1.2.7-.8 1-1.9 1-3.2v-2.4zM147.2 89.7v6h-1.7V81.9h4.9c1.5 0 2.7.3 3.5 1 .8.7 1.2 1.6 1.2 2.9 0 .7-.2 1.3-.6 1.9-.4.5-.9.9-1.7 1.2.8.3 1.3.6 1.7 1.2.3.5.5 1.2.5 2.1v1.3c0 .4 0 .8.1 1.2.1.3.3.6.5.8v.2h-1.8c-.3-.2-.4-.5-.5-1s-.1-.8-.1-1.3v-1.3c0-.8-.2-1.4-.7-1.8s-1.1-.7-1.8-.7h-3.5zm0-1.4h3c1.1 0 1.9-.2 2.4-.6.5-.4.7-1 .7-1.9 0-.8-.2-1.4-.7-1.8-.5-.4-1.2-.6-2.2-.6h-3.2v4.9zM168 89.3h-6.4v5h7.3v1.4h-9.1V81.9h9v1.4h-7.2v4.5h6.4v1.5z"/><g><path id="text1326_21_" d="M54.4 38.8c4.2-4.1 8.3-7.5 12.2-10.4 3.9-2.9 7.2-4.8 9.9-5.8s5.6-1.4 8.8-1.4v8.5c-2.4 0-4.6.4-6.8 1.3-2.2.8-4.8 2.2-7.9 4.3-3.1 2-6.7 4.8-10.9 8.4m-.1.1c5.7 5.6 10.3 9.5 14 11.5 3.7 2 7.4 3 11 3 4.6 0 8.1-1.3 10.7-4 3.2 5 1.7 9.8 1.7 9.8-3.3 1.9-7.2 2.8-11.5 2.8-5.6 0-10.6-1.2-14.8-3.6-4.2-2.4-9.6-7-16.3-13.7-7 6.9-12.5 11.5-16.6 13.8-4.1 2.3-8.9 3.5-14.4 3.5-7 0-12.4-2.2-16.3-6.5-3.9-4.4-5.8-9.8-5.8-16.5 0-6.2 2-11.5 6.1-16 4.1-4.4 9.5-6.7 16.1-6.7 3.2 0 6.2.5 8.8 1.4 2.7 1 5.9 2.9 9.8 5.8 3.9 2.8 8 6.3 12.2 10.4m-5.1 5c-3.9-3.3-7.3-5.9-10.4-8-3.1-2.1-5.7-3.7-8-4.6-2.3-.9-4.8-1.4-7.6-1.4-3.9 0-7.2 1.4-9.7 4.1-2.6 2.7-3.9 6.2-3.9 10.4 0 2.9.7 5.4 2 7.5 1.3 2 3 3.6 4.9 4.7 2 1.1 4.4 1.7 7.4 1.7 3.9 0 7.6-1 11.2-3.1 3.8-1.9 8.4-5.7 14.1-11.3"/><ellipse class="st0" cx="144.4" cy="8.6" rx="6.3" ry="6.3"/><path d="M84.8 39.5H59.5l.7 8.3h32.2c-2.2-3.1-4.7-6-7.6-8.3z"/><path d="M85.3 21.3c-3.2 0-6.2.5-8.8 1.4-1.2.4-2.5 1.1-3.9 1.9l17.2 1.3-4.5-4.6zm10.5 32.3c-1 1.2-2.2 2.2-3.5 3-2 1.1-4.4 1.7-7.4 1.7-3.9 0-7.6-1-11.2-3.1-3.6-2-8.3-5.8-14-11.4 3.9-3.3 7.3-5.9 10.4-8 .7-.5 1.3-.9 1.9-1.3h-1l-2-7.6c-.7.5-1.5 1.1-2.3 1.6-3.9 2.8-8 6.3-12.2 10.4-4.2-4.1-8.3-7.5-12.2-10.4-3.9-2.9-7.2-4.8-9.9-5.8s-5.6-1.4-8.8-1.4v8.5c2.4 0 4.6.4 6.8 1.3 2.2.8 4.8 2.2 7.9 4.3 3.1 2 6.7 4.8 10.9 8.4-5.7 5.6-10.3 9.5-14 11.5-3.7 2-7.4 3-11 3-4.6 0-8.1-1.3-10.7-4-3.2 5-1.7 9.8-1.7 9.8 3.3 1.9 7.2 2.8 11.5 2.8 5.6 0 10.6-1.2 14.8-3.6 4.2-2.4 9.6-7 16.3-13.7 7 6.9 12.5 11.5 16.6 13.8 4.1 2.3 8.9 3.5 14.4 3.5 5.8 0 10.6-1.5 14.3-4.6-1-2.8-2.3-5.7-3.9-8.7z"/><path d="M110.1 55c1.3 3.4 2.3 6.5 2.9 8.8.3 1.1.5 2 .7 2.6 0 .2.1.4.1.5h8.5c.5-2.1 2.9-12 7-21.1 2.1-4.5 4.6-8.8 7.2-11.7 1.3-1.5 2.7-2.6 4-3.3 1.3-.7 2.5-1 3.7-1 1.6 0 2.9.4 4.2 1.2 2.2 1.4 4.4 4.2 6.1 8 2.6 5.7 4.2 13.2 5 19.1.4 3 .6 5.6.8 7.5 0 .5.1.9.1 1.2h8.5c-.2-3.3-.8-12-3-20.9-1.4-5.7-3.5-11.4-6.8-16.2-1.7-2.4-3.7-4.5-6.2-6-2.5-1.6-5.5-2.5-8.7-2.5-3 0-5.9.9-8.3 2.3-4.3 2.5-7.5 6.5-10.3 10.8-3.4 5.4-5.9 11.6-7.8 17-.9-2.4-2-4.9-3.3-7.4-2.7-5.4-6.3-10.9-11.1-15.3-4.7-4.3-10.9-7.5-18.3-7.5-2.4 0-4.3 1.9-4.3 4.3s1.9 4.3 4.3 4.3c4.9 0 8.9 2 12.5 5.3 5.7 5 9.9 13.1 12.5 20z"/></g></svg>
