<?xml version="1.0" encoding="utf-8"?>
<!-- Generator: Adobe Illustrator 21.0.2, SVG Export Plug-In . SVG Version: 6.00 Build 0)  -->
<svg version="1.1" id="Layer_1" xmlns="http://www.w3.org/2000/svg" xmlns:xlink="http://www.w3.org/1999/xlink" x="0px" y="0px"
	 viewBox="0 0 140 29" style="enable-background:new 0 0 140 29;" xml:space="preserve">
<style type="text/css">
	.st0{fill:#FFFFFF;}
</style>
<path class="st0" d="M82.6,26.6c10.7,0,16.6-8.8,16.6-16.5c0-0.3,0-0.5,0-0.7c1.1-0.8,2.1-1.9,2.9-3c-1,0.5-2.1,0.7-3.4,0.9
	c1.2-0.7,2.1-1.9,2.5-3.3c-1.1,0.7-2.3,1.1-3.7,1.4c-1-1.1-2.6-1.9-4.2-1.9c-3.2,0-5.8,2.6-5.8,5.8c0,0.5,0.1,0.9,0.2,1.3
	c-4.8-0.3-9.1-2.5-11.9-6.1c-0.5,0.8-0.7,1.9-0.7,2.9c0,2,1,3.8,2.6,4.8c-0.9,0-1.9-0.3-2.6-0.7c0,0,0,0,0,0.1c0,2.8,2,5.1,4.7,5.7
	c-0.5,0.1-1,0.2-1.5,0.2c-0.4,0-0.7,0-1.1-0.1c0.7,2.3,2.9,4,5.4,4c-2,1.6-4.5,2.5-7.2,2.5c-0.5,0-0.9,0-1.4-0.1
	C76.3,25.7,79.3,26.6,82.6,26.6"/>
<path id="linkedin" class="st0" d="M8.9,26.8V11H4v15.9h4.9V26.8z M8.9,5.3c0-1.4-1-2.5-2.5-2.5S3.8,3.9,3.8,5.3s1,2.5,2.5,2.5
	C7.9,7.8,8.9,6.7,8.9,5.3z M16.9,26.8v-9c0-0.5,0-1,0.2-1.3c0.4-1,1.3-2,2.8-2c1.9,0,3.2,1.1,3.2,3.3v9H28v-9.3c0-5-2.7-7.3-6.2-7.3
	c-2.9,0-4.2,1.6-4.9,2.7v-2.1H12c0.1,1.5,0,16,0,16H16.9z"/>
<path class="st0" d="M66.3,10.3c-0.3-1.5-1.6-2.7-3-2.8c-3.5-0.3-7.1-0.3-10.5-0.3s-7.1,0-10.5,0.3c-1.5,0.1-2.7,1.3-3,2.8
	c-0.5,2.1-0.5,4.5-0.5,6.7s0,4.5,0.5,6.7c0.3,1.5,1.6,2.7,3,2.8c3.5,0.3,7.1,0.3,10.5,0.3s7.1,0,10.5-0.3c1.5-0.1,2.7-1.3,3-2.8
	c0.5-2.1,0.5-4.5,0.5-6.7S66.8,12.3,66.3,10.3z M49,20.7v-9l7.9,4.5L49,20.7z"/>
<path class="st0" d="M133.4,2.8H112c-0.7,0-1.3,0.6-1.3,1.3v21.4c0,0.7,0.6,1.3,1.3,1.3h11.5v-9.3h-3.1v-3.6h3.1v-2.7
	c0-3.1,1.9-4.8,4.7-4.8c1.3,0,2.5,0.1,2.8,0.1v3.3l-1.9,0c-1.5,0-1.8,0.7-1.8,1.8v2.3h3.6l-0.5,3.6h-3.1v9.3h6.1
	c0.7,0,1.3-0.6,1.3-1.3V4.1C134.7,3.4,134.1,2.8,133.4,2.8z"/>
</svg>
